<svg width="3758" height="793" viewBox="0 0 3758 793" fill="none" xmlns="http://www.w3.org/2000/svg">
<path d="M291.449 699.063L425.711 645.465L492.842 685.663L432.48 780.87C428.25 788.345 420.352 793 411.89 793H359.849C350.964 793 342.785 787.922 338.695 780.024L291.449 699.063Z" fill="url(#paint0_linear_213_86)"/>
<path d="M77.9276 589.892L157.187 484.389L237.716 578.467L116.852 672.405L77.9276 589.892Z" fill="url(#paint1_linear_213_86)"/>
<path d="M711.441 328.108L546.434 135.437L307.809 135.296L543.754 395.106L697.62 564.503L789.572 446.165C796.483 437.279 796.2 424.584 788.726 416.122L711.441 328.108Z" fill="url(#paint2_linear_213_86)"/>
<path d="M776.456 626.987L704.53 760.559C698.607 771.42 685.35 775.933 674.067 770.856L36.3234 468.591L157.187 296.514L766.02 594.547C778.007 600.329 782.802 615.139 776.456 626.987Z" fill="url(#paint3_linear_213_86)"/>
<path d="M711.44 328.108L543.754 395.106L88.3639 581.57C75.107 587.071 69.6067 603.009 76.9404 615.421L147.456 736.299C153.097 746.031 164.803 750.404 175.521 746.736L707.633 565.068L790.982 446.024C797.187 437.138 796.623 425.008 789.431 416.827L711.44 328.108Z" fill="url(#paint4_linear_213_86)"/>
<path d="M25.7459 456.179L1.4885 391.579C-1.75522 382.693 0.360256 372.82 7.27079 366.332L370.145 16.2525C394.684 -7.44346 434.173 -4.9046 455.469 21.7533L546.434 135.437L61.2858 467.463C48.593 476.067 31.1051 470.566 25.7459 456.179Z" fill="url(#paint5_linear_213_86)"/>
<path d="M655.028 175.918C655.028 144.323 629.36 118.653 597.769 118.653H196.817C165.226 118.653 139.558 144.323 139.558 175.918V376.487V577.057C139.558 608.651 165.226 634.322 196.817 634.322H597.91C629.501 634.322 655.169 608.651 655.169 577.057V376.487V175.918H655.028Z" fill="#2B2B2B"/>
<path d="M532.331 477.618C522.317 461.539 510.048 438.407 483.393 417.109C469.149 405.684 468.726 384.386 482.547 372.397C482.688 372.256 482.829 372.256 482.829 372.115C543.472 319.222 537.831 224.862 445.737 199.05C352.234 172.815 273.679 222.746 255.909 299.758C242.511 358.151 244.345 394.541 247.165 430.932C256.755 554.63 271.846 567.042 319.655 559.285C367.465 551.527 340.81 509.072 332.63 483.119C321.63 448.139 321.489 429.38 344.336 427.97C373.952 425.995 430.083 446.447 448.135 506.956C467.174 570.851 497.919 563.234 526.689 557.451C555.46 551.386 555.883 515.137 532.331 477.618ZM348.426 362.524C333.335 359.421 326.002 344.752 327.694 305.964C329.104 275.356 353.785 254.623 387.773 257.02C422.608 259.559 449.686 270.702 449.827 300.04C449.968 326.275 413.864 351.099 383.543 358.574C369.298 362.242 357.593 364.357 348.426 362.524Z" fill="white"/>
<path d="M484.883 195.828L473.415 184.359L344.273 313.515L355.741 324.984L484.883 195.828Z" fill="#2B2B2B"/>
<path d="M504.98 216.035L493.512 204.565L377.634 320.457L389.102 331.926L504.98 216.035Z" fill="#2B2B2B"/>
<path d="M525.118 236.195L513.65 224.725L419.511 318.875L430.98 330.344L525.118 236.195Z" fill="#2B2B2B"/>
<path d="M545.336 256.298L533.868 244.829L329.236 449.484L340.704 460.954L545.336 256.298Z" fill="#2B2B2B"/>
<path d="M565.495 276.471L554.027 265.002L349.395 469.657L360.863 481.127L565.495 276.471Z" fill="#2B2B2B"/>
<path d="M585.654 296.645L574.185 285.175L369.553 489.83L381.021 501.3L585.654 296.645Z" fill="#2B2B2B"/>
<path d="M605.791 316.788L594.323 305.319L368.549 531.118L380.017 542.587L605.791 316.788Z" fill="#2B2B2B"/>
<path d="M625.949 336.961L614.481 325.492L388.707 551.291L400.175 562.76L625.949 336.961Z" fill="#2B2B2B"/>
<path d="M646.108 357.134L634.64 345.665L408.866 571.464L420.334 582.933L646.108 357.134Z" fill="#2B2B2B"/>
<path d="M613.752 429.855L602.284 418.385L444.323 576.365L455.791 587.834L613.752 429.855Z" fill="#2B2B2B"/>
<path d="M633.911 450.028L622.443 438.559L464.481 596.538L475.949 608.008L633.911 450.028Z" fill="#2B2B2B"/>
<path d="M1132.42 468.591C1127.2 469.437 1119.44 470.143 1109.01 470.848C1098.57 471.553 1086.73 471.976 1073.47 472.117C1060.21 472.258 1046.25 472.399 1031.58 472.54C1016.91 472.682 1003.09 472.682 989.977 472.682L988.708 514.996C988.144 526.421 987.58 537.704 986.875 548.424C986.17 559.285 985.605 570.004 985.041 580.583C984.759 587.917 981.234 591.725 974.323 591.725H930.885C924.257 591.725 920.731 587.917 920.167 580.301C919.039 556.181 918.334 534.46 918.052 514.855C917.769 495.249 917.769 475.502 917.91 455.615C918.051 435.586 918.475 414.288 919.321 391.579C920.167 368.871 921.154 342.354 922.141 311.888C923.834 304.835 927.219 301.168 932.437 301.168H934.129C936.386 300.886 939.206 300.745 943.014 300.604C946.681 300.463 950.63 300.04 954.72 299.193C966.989 298.347 981.798 297.642 999.003 297.078C1016.21 296.513 1033.42 296.231 1050.48 296.231C1067.54 296.231 1083.48 296.513 1098.15 297.078C1112.82 297.642 1123.82 298.488 1131.15 299.475C1134.11 300.04 1135.8 301.732 1136.09 304.835V330.224C1136.09 332.198 1135.8 333.327 1135.24 333.75C1134.68 334.173 1133.69 334.596 1132.42 335.16C1127.2 336.289 1119.44 337.135 1109.01 337.558C1098.57 338.122 1086.73 338.546 1073.47 338.828C1060.21 339.11 1046.25 339.251 1031.58 339.392C1016.91 339.533 1003.09 339.533 989.977 339.533H988.285L989.554 377.757C989.836 386.502 989.977 395.247 989.977 403.85C989.977 412.454 989.977 421.199 989.977 429.944C996.324 429.662 1002.81 429.521 1009.44 429.521C1016.21 429.521 1022.98 429.38 1029.75 429.098C1039.9 429.098 1050.06 429.098 1060.35 429.098C1070.65 429.098 1080.24 429.239 1089.26 429.521C1098.29 429.803 1106.47 430.226 1113.66 430.79C1120.85 431.355 1126.78 431.919 1131.15 432.483C1134.11 432.765 1135.8 434.458 1136.09 437.42V463.231C1136.09 464.924 1135.8 466.052 1135.24 466.757C1134.82 467.463 1133.83 468.168 1132.42 468.591Z" fill="url(#paint6_linear_213_86)"/>
<path d="M1379.93 586.789C1377.95 587.917 1375.84 588.058 1373.3 587.353C1370.9 586.648 1368.79 585.096 1367.1 582.698C1360.47 571.274 1354.68 560.131 1349.47 549.693C1344.25 539.115 1339.17 528.818 1334.24 518.663C1331.27 518.945 1328.17 519.086 1325.07 519.086C1321.97 519.086 1318.72 519.086 1315.48 519.086C1305.61 519.368 1295.17 519.65 1284.31 519.932C1273.31 520.214 1262.87 520.355 1252.72 520.355H1231C1226.35 530.793 1221.27 541.089 1215.63 551.527C1209.99 561.964 1204.2 572.402 1198.14 583.122C1194.9 588.34 1190.67 589.751 1185.45 587.212L1152.16 571.274C1149.77 569.581 1147.79 567.888 1146.38 566.196C1144.97 564.362 1144.83 562.247 1145.96 559.849C1153.29 541.795 1162.32 521.202 1172.9 498.211C1183.47 475.22 1194.47 452.089 1206.18 428.816C1217.74 405.543 1229.45 383.399 1241.01 362.382C1252.58 341.366 1263.58 323.736 1273.59 309.49C1276.27 305.399 1279.51 303.002 1283.18 302.578C1286.85 302.014 1290.09 303.002 1292.77 305.399V305.823C1295.03 306.951 1296.44 308.361 1297.28 310.336C1308.57 324.3 1319.71 341.79 1330.99 362.665C1342.27 383.54 1353.13 405.684 1363.85 428.675C1374.57 451.806 1384.58 474.797 1394.17 497.788C1403.76 520.779 1412.08 541.231 1419.28 559.285C1420.12 561.682 1419.84 563.939 1418.71 565.914C1417.44 567.888 1415.75 569.299 1413.64 570.427L1379.93 586.789ZM1249.48 481.85H1251.59C1261.18 481.85 1271.34 481.567 1282.19 480.862C1293.05 480.157 1303.21 479.875 1312.8 479.875H1317.73L1308.71 458.577C1304.62 448.703 1300.81 439.112 1297.43 429.803C1294.04 420.494 1290.66 411.185 1287.41 401.876L1285.72 398.209C1281.91 407.518 1277.96 416.968 1273.87 426.7C1269.78 436.432 1265.69 446.024 1261.6 455.615L1249.48 481.85Z" fill="url(#paint7_linear_213_86)"/>
<path d="M1459.19 510.059C1463.84 508.085 1466.95 509.072 1468.64 512.88C1473.01 521.625 1478.65 528.818 1485.7 534.46C1492.61 540.102 1499.95 544.334 1507.7 547.155C1515.32 549.976 1523.22 551.527 1531.11 551.527C1539.01 551.527 1546.35 550.117 1552.83 547.155C1559.46 544.334 1564.68 540.102 1568.77 534.601C1572.86 529.101 1575.4 522.189 1576.1 513.726C1576.39 508.226 1575.68 503.43 1573.99 499.34C1572.3 495.249 1568.77 491.018 1563.13 486.645C1557.49 482.273 1549.45 477.618 1539.15 472.682C1528.72 467.745 1514.76 461.821 1497.27 455.051C1480.91 448.422 1468.5 440.1 1460.32 429.944C1452.14 419.789 1448.05 405.684 1448.05 387.63C1448.05 371.833 1451.57 358.292 1458.48 347.15C1465.39 336.007 1474.28 327.121 1485.14 320.492C1496 313.721 1508.13 309.208 1521.67 306.81C1535.2 304.412 1548.6 303.848 1561.86 305.117C1575.12 306.528 1587.53 309.772 1598.95 315.132C1610.52 320.492 1619.54 327.544 1626.45 336.289L1629.7 341.226C1630.54 342.072 1630.68 343.482 1630.12 345.316L1611.64 364.639C1610.52 366.332 1608.96 367.601 1606.99 368.589C1604.87 369.576 1603.18 369.294 1601.91 368.025C1597.54 361.959 1590.35 356.882 1580.33 352.791C1570.32 348.701 1560.31 346.726 1550.15 346.867C1540 347.008 1531.11 349.829 1523.22 355.33C1515.46 360.831 1511.51 369.999 1511.51 382.834C1511.51 389.746 1514.19 395.67 1519.55 400.889C1524.91 406.107 1533.23 411.185 1544.79 416.122C1553.82 420.494 1564.54 424.726 1576.95 428.675C1589.36 432.624 1601.35 438.125 1612.63 445.318C1623.91 452.371 1633.22 461.68 1640.27 473.246C1647.32 484.671 1650.43 499.763 1649.3 518.381C1648.17 534.46 1642.95 548.424 1633.5 559.99C1624.05 571.556 1612.35 580.724 1598.39 587.353C1584.42 593.982 1569.05 597.791 1552.41 598.778C1535.77 599.906 1519.41 598.073 1503.61 593.277C1487.68 588.481 1473.29 580.583 1460.32 569.722C1447.34 558.72 1437.47 544.475 1430.98 526.562C1429.29 522.189 1430.42 519.509 1434.23 518.381L1459.19 510.059Z" fill="url(#paint8_linear_213_86)"/>
<path d="M1894.98 345.88C1888.91 346.726 1879.74 347.29 1867.47 347.714C1855.21 348.137 1841.38 348.56 1826.01 349.124C1823.61 349.124 1821.36 349.124 1819.24 349.124C1817.13 349.124 1814.87 349.406 1812.47 349.97C1813.6 367.46 1814.31 385.232 1814.59 403.145C1814.87 421.058 1814.87 439.535 1814.59 458.295C1814.31 479.875 1813.88 500.891 1813.18 521.061C1812.47 541.371 1811.34 561.4 1809.65 581.429C1809.37 588.34 1805.98 591.725 1799.36 591.725H1755.5C1752.53 591.725 1750 590.738 1748.16 588.904C1746.19 586.93 1745.2 584.532 1744.92 581.57C1744.35 564.926 1743.93 549.411 1743.51 535.165C1743.09 520.92 1742.94 507.097 1742.94 493.556C1742.94 480.016 1743.09 466.334 1743.37 452.512C1743.65 438.689 1744.07 423.738 1744.64 407.518C1744.92 399.337 1745.06 390.31 1745.2 380.578C1745.34 370.845 1745.62 360.831 1746.19 350.393H1728.56C1713.19 350.393 1699.37 350.111 1686.95 349.406C1674.54 348.701 1665.09 348.137 1658.89 347.572C1656.91 347.572 1656.07 345.88 1656.07 342.636L1655.65 316.824C1655.65 315.132 1656.07 314.003 1657.06 313.298C1658.04 312.593 1659.03 312.17 1660.16 311.888C1666.22 311.041 1675.11 310.195 1687.1 309.49C1698.94 308.643 1712.48 308.079 1727.57 307.656C1742.66 307.233 1758.46 306.951 1774.96 306.81C1791.46 306.669 1807.4 306.669 1822.77 306.81C1838.14 306.951 1852.1 307.233 1864.8 307.656C1877.49 308.079 1887.36 308.785 1894.55 309.913C1898.08 310.477 1899.91 312.311 1899.91 315.273V340.379C1899.91 342.354 1899.63 343.482 1898.92 344.046C1897.8 344.469 1896.67 345.175 1894.98 345.88Z" fill="url(#paint9_linear_213_86)"/>
<path d="M2201.86 314.708C2215.82 321.62 2226.82 331.07 2234.86 343.482C2242.9 355.753 2247.98 369.012 2249.81 383.257C2251.79 397.503 2250.37 411.608 2245.72 425.572C2241.07 439.535 2232.75 451.242 2220.62 460.833C2215.68 464.642 2210.32 467.886 2204.68 470.707L2225.13 502.301C2231.9 513.303 2238.25 524.305 2244.03 535.306C2249.81 546.449 2255.17 557.31 2259.96 567.888C2262.22 571.697 2260.39 575.223 2254.61 578.608L2218.92 600.329C2212.86 603.573 2208.91 603.714 2207.08 600.752C2201.01 592.572 2195.65 584.955 2190.72 577.903C2185.78 570.991 2181.27 563.939 2177.18 557.028C2173.09 550.116 2168.86 543.064 2164.63 535.871C2160.4 528.818 2155.74 521.061 2150.95 512.88C2148.55 508.507 2146.01 503.853 2143.61 499.198C2141.22 494.403 2138.4 489.325 2135.43 483.824C2133.04 484.106 2130.5 484.247 2128.1 484.247C2125.7 484.247 2123.16 484.247 2120.77 484.247C2115.83 484.529 2111.04 484.67 2106.24 484.67C2101.45 484.67 2096.65 484.67 2091.71 484.67L2090.87 520.779C2090.59 532.203 2090.02 543.487 2089.18 554.207C2088.33 565.067 2087.62 575.787 2087.06 586.366C2086.78 593.7 2083.25 597.508 2076.34 597.508H2032.9C2029.94 597.508 2027.4 596.38 2025.57 594.264C2023.6 592.007 2022.61 589.328 2022.33 586.083C2021.2 561.964 2020.49 540.243 2020.21 520.638C2019.93 501.032 2019.93 481.426 2020.07 461.539C2020.21 441.651 2020.63 420.494 2021.48 397.785C2022.33 375.077 2023.31 348.419 2024.3 317.812C2024.87 314.285 2025.99 311.746 2027.55 310.477L2029.24 308.784L2031.35 307.515C2032.2 307.515 2032.9 307.374 2033.47 307.092H2033.89L2048.28 305.822C2058.71 304.694 2071.12 303.848 2085.65 303.425C2100.18 302.86 2114.84 302.86 2129.79 303.425C2144.74 303.989 2158.7 305.117 2171.82 306.951C2184.65 308.502 2194.81 311.182 2201.86 314.708ZM2091.43 383.681C2092 394.964 2092.28 405.966 2092.28 416.686C2092.28 427.546 2092.14 438.548 2091.86 449.691H2105.82C2114.84 449.691 2124.01 449.127 2133.32 447.857C2142.63 446.588 2150.81 444.613 2158 441.933C2162.94 439.676 2167.03 436.15 2170.13 431.072C2173.23 425.995 2175.49 420.071 2176.9 413.159C2178.31 406.389 2178.73 399.196 2178.31 391.579C2177.88 384.104 2176.62 377.051 2174.36 370.422C2172.1 363.793 2168.86 358.151 2164.49 353.355C2160.11 348.56 2154.9 345.316 2148.83 343.764C2140.65 341.79 2130.22 340.943 2117.66 340.943C2112.73 340.943 2108.07 341.084 2103.56 341.084C2099.05 341.225 2094.54 341.366 2090.16 341.648L2091.43 383.681Z" fill="#087CFA"/>
<path d="M2484.2 462.949C2478.99 463.795 2471.23 464.501 2460.79 465.065C2450.36 465.629 2438.65 466.052 2425.54 466.334C2412.42 466.616 2398.6 466.898 2384.07 467.181C2369.55 467.463 2355.58 467.604 2342.19 467.604H2341.76L2340.49 515.278L2338.38 551.386H2342.47C2356.15 551.386 2370.39 551.386 2385.2 551.245C2400.01 551.104 2414.25 551.104 2428.07 551.245C2441.9 551.386 2454.45 551.527 2465.59 551.809C2476.87 552.091 2485.62 552.796 2491.82 553.925C2494.78 554.207 2496.33 556.04 2496.33 559.285L2496.76 585.096C2496.76 587.353 2495.21 588.904 2492.24 590.033C2485.33 591.161 2474.47 592.149 2459.38 592.854C2444.29 593.7 2427.65 594.264 2409.46 594.687C2391.27 595.111 2372.93 595.252 2354.31 595.11C2335.7 594.969 2319.62 594.405 2305.94 593.277L2284.65 592.007H2282.53C2275.9 592.007 2272.38 588.199 2271.81 580.583C2270.68 556.464 2269.98 534.742 2269.7 515.137C2269.41 495.531 2269.41 475.784 2269.56 455.897C2269.7 435.868 2270.12 414.57 2270.97 391.861C2271.81 369.153 2272.8 342.636 2273.79 312.17C2275.48 305.117 2279 301.45 2284.5 301.45H2285.77C2288.03 301.168 2290.85 301.027 2294.66 300.886C2298.33 300.745 2302.27 300.322 2306.36 299.475C2318.63 298.629 2333.44 297.924 2350.65 297.36C2367.85 296.795 2385.06 296.513 2402.12 296.513C2419.19 296.513 2435.13 296.795 2449.79 297.36C2464.46 297.924 2475.46 298.77 2482.79 299.757C2486.04 300.604 2487.73 302.296 2487.73 305.117V330.506C2487.73 332.48 2487.45 333.609 2486.88 334.032C2486.32 334.455 2485.33 334.878 2484.06 335.442C2478.85 336.571 2471.09 337.417 2460.65 337.84C2450.22 338.404 2438.51 338.828 2425.39 339.11C2412.28 339.392 2398.46 339.533 2383.93 339.674C2369.41 339.815 2355.44 339.815 2342.05 339.815H2339.93L2341.2 378.039C2341.48 385.655 2341.62 393.413 2341.62 401.029C2341.62 408.646 2341.62 416.545 2341.62 424.443C2347.97 424.161 2354.46 424.02 2361.08 424.02C2367.85 424.02 2374.62 423.879 2381.39 423.597C2391.55 423.597 2401.7 423.597 2412 423.597C2422.29 423.597 2431.88 423.738 2440.91 424.02C2449.93 424.302 2458.11 424.584 2465.31 425.007C2472.5 425.431 2478.42 425.995 2482.79 426.841C2486.04 427.405 2487.73 429.098 2487.73 432.201V457.166C2487.73 459.141 2487.45 460.269 2486.88 460.833C2486.6 461.398 2485.62 462.103 2484.2 462.949Z" fill="#087CFA"/>
<path d="M2726.36 632.065C2723.96 630.09 2720.43 626.705 2715.92 621.769C2711.41 616.832 2706.61 611.049 2701.39 604.561C2700.83 603.432 2700.12 602.445 2699.14 601.458C2698.15 600.47 2697.44 599.624 2696.88 598.778L2693.21 599.624C2686.58 601.035 2679.82 602.163 2672.9 603.291C2665.99 604.42 2658.94 604.984 2651.75 604.984H2650.9C2636.38 604.984 2622.27 603.432 2608.45 600.47C2594.63 597.508 2581.8 592.713 2570.09 586.084C2558.39 579.454 2548.23 571.415 2539.77 561.823C2531.31 552.232 2524.4 541.654 2519.18 530.229C2513.96 518.804 2510.01 506.392 2507.48 493.133C2504.94 479.875 2503.53 466.052 2503.53 451.948C2503.53 437.702 2504.94 423.879 2507.9 410.339C2510.72 396.798 2515.09 384.245 2520.87 372.538C2526.66 360.972 2533.57 350.394 2541.75 340.943C2549.93 331.493 2559.37 324.018 2570.09 318.517C2581.52 312.452 2594.35 307.938 2608.31 304.976C2622.27 302.014 2636.52 300.463 2651.05 300.463H2652.31C2666.84 300.463 2680.94 301.873 2694.76 304.553C2708.59 307.233 2721.42 311.888 2733.13 318.517C2743.56 324.018 2752.87 331.493 2761.19 340.943C2769.51 350.394 2776.56 360.972 2782.06 372.538C2787.7 384.104 2791.94 396.798 2795.04 410.339C2798 423.879 2799.55 437.843 2799.55 451.948C2799.55 481.003 2793.91 506.674 2782.77 529.1C2774.87 545.18 2764.15 558.861 2750.75 570.145C2752.73 573.389 2754.56 576.492 2756.54 579.313C2758.51 582.134 2760.06 585.096 2761.47 588.199C2764.72 594.546 2766.97 599.483 2768.1 603.432C2768.95 605.125 2767.4 607.241 2763.59 610.062L2733.97 631.36C2730.16 632.488 2727.77 632.77 2726.36 632.065ZM2720.57 507.238C2726.64 490.877 2729.6 472.399 2729.6 451.807C2729.6 441.651 2728.47 431.637 2726.36 421.905C2724.1 412.031 2721.14 403.004 2717.19 394.682C2713.24 386.361 2708.73 378.885 2703.65 372.256C2698.57 365.627 2693.21 360.69 2687.43 357.023C2675.73 349.97 2663.6 346.303 2651.33 346.303C2639.06 346.303 2626.93 349.829 2615.22 357.023C2609.16 360.549 2603.8 365.627 2599.29 372.256C2594.63 378.885 2590.54 386.22 2587.16 394.682C2583.77 403.004 2581.09 412.172 2579.4 421.905C2577.57 431.778 2576.72 441.792 2576.72 451.807C2576.72 472.541 2580.39 491.159 2587.58 507.661C2594.77 524.023 2604.36 535.871 2616.07 542.923C2621.85 546.167 2627.63 548.847 2633.56 550.963C2639.48 553.079 2645.4 554.066 2651.47 554.066C2655.28 554.066 2659.79 553.502 2665.01 552.373L2658.1 541.231C2656.4 538.269 2655.14 535.448 2654.01 533.05C2652.88 530.652 2652.03 528.677 2651.61 527.267C2651.33 526.421 2653.02 524.728 2656.55 521.907L2686.02 501.032C2689.83 498.352 2692.37 497.647 2693.35 498.916C2696.88 501.173 2700.69 504.558 2704.78 509.213C2706.19 510.623 2707.6 512.316 2709.29 514.291C2710.98 516.406 2712.68 518.381 2714.65 520.215C2717.19 515.983 2719.3 511.611 2720.57 507.238Z" fill="url(#paint10_linear_213_86)"/>
<path d="M3041.14 323.735C3039.73 317.388 3036.2 314.285 3030.42 314.285H2987.69C2984.73 314.285 2982.05 314.85 2979.65 315.978C2977.25 317.106 2976.12 318.94 2976.12 321.761C2975.28 338.687 2974.85 355.33 2974.85 371.409C2974.85 387.489 2974.85 403.427 2974.71 419.224C2974.57 435.022 2974.29 450.678 2973.87 466.475C2973.44 482.273 2972.31 498.07 2970.34 513.867C2969.21 523.741 2964.98 532.062 2957.37 539.115C2949.89 546.026 2939.31 549.552 2925.92 549.552H2924.65H2924.22C2910.82 549.552 2900.39 546.026 2892.77 539.115C2885.3 532.203 2880.79 523.741 2879.37 513.867C2877.68 498.07 2876.55 482.132 2875.85 466.475C2875.14 450.678 2874.72 435.022 2874.58 419.224C2874.44 403.427 2874.44 387.489 2874.44 371.409C2874.44 355.33 2874.16 338.687 2873.59 321.761C2873.59 319.081 2872.46 317.106 2870.35 315.978C2868.09 314.85 2865.55 314.285 2862.59 314.285H2819.86C2814.08 314.285 2810.55 317.388 2809.14 323.735C2807.73 349.406 2806.88 372.961 2806.46 394.118C2806.04 415.275 2806.04 434.599 2806.32 451.806C2806.6 469.014 2807.45 484.388 2808.72 497.929C2810.13 511.469 2811.96 523.459 2814.5 533.896C2816.76 543.769 2821.27 552.514 2828.04 560.413C2834.81 568.17 2843.41 574.8 2853.43 580.159C2863.58 585.519 2874.72 589.61 2887.13 592.431C2899.4 595.252 2911.95 596.803 2924.5 596.803C2937.62 596.803 2950.31 595.393 2962.72 592.431C2974.99 589.61 2986.28 585.519 2996.43 580.159C3006.59 574.8 3015.05 568.312 3021.82 560.413C3028.59 552.655 3033.1 543.769 3035.36 533.896C3039.73 512.598 3042.27 485.235 3043.11 451.806C3044.38 418.378 3043.54 375.782 3041.14 323.735Z" fill="url(#paint11_linear_213_86)"/>
<path d="M3265.24 462.949C3260.02 463.795 3252.26 464.501 3241.83 465.065C3231.39 465.629 3219.68 466.052 3206.57 466.334C3193.45 466.616 3179.63 466.898 3165.1 467.181C3150.58 467.463 3136.62 467.604 3123.22 467.604H3122.8L3121.53 515.278L3119.41 551.386H3123.5C3137.18 551.386 3151.42 551.386 3166.23 551.245C3181.04 551.104 3195.29 551.104 3209.11 551.245C3222.93 551.386 3235.48 551.527 3246.62 551.809C3257.9 552.091 3266.65 552.796 3272.85 553.925C3275.81 554.207 3277.37 556.04 3277.37 559.285L3277.79 585.096C3277.79 587.353 3276.24 588.904 3273.28 590.033C3266.36 591.161 3255.51 592.149 3240.42 592.854C3225.32 593.7 3208.68 594.264 3190.49 594.687C3172.3 595.111 3153.96 595.252 3135.35 595.11C3116.73 594.969 3100.65 594.405 3086.97 593.277L3065.68 592.007H3063.56C3056.93 592.007 3053.41 588.199 3052.84 580.583C3051.72 556.464 3051.01 534.742 3050.73 515.137C3050.45 495.531 3050.45 475.784 3050.59 455.897C3050.73 435.868 3051.15 414.57 3052 391.861C3052.84 369.153 3053.83 342.636 3054.82 312.17C3056.51 305.117 3060.04 301.45 3065.54 301.45H3066.81C3069.06 301.168 3071.88 301.027 3075.69 300.886C3079.36 300.745 3083.31 300.322 3087.4 299.475C3099.67 298.629 3114.47 297.924 3131.68 297.36C3148.89 296.795 3166.09 296.513 3183.16 296.513C3200.22 296.513 3216.16 296.795 3230.83 297.36C3245.49 297.924 3256.49 298.77 3263.83 299.757C3267.07 300.604 3268.76 302.296 3268.76 305.117V330.506C3268.76 332.48 3268.48 333.609 3267.92 334.032C3267.35 334.455 3266.36 334.878 3265.1 335.442C3259.88 336.571 3252.12 337.417 3241.68 337.84C3231.25 338.404 3219.54 338.828 3206.43 339.11C3193.31 339.392 3179.49 339.533 3164.96 339.674C3150.44 339.815 3136.48 339.815 3123.08 339.815H3120.96L3122.23 378.039C3122.51 385.655 3122.65 393.413 3122.65 401.029C3122.65 408.646 3122.65 416.545 3122.65 424.443C3129 424.161 3135.49 424.02 3142.12 424.02C3148.89 424.02 3155.66 423.879 3162.43 423.597C3172.58 423.597 3182.73 423.597 3193.03 423.597C3203.32 423.597 3212.91 423.738 3221.94 424.02C3230.97 424.302 3239.15 424.584 3246.34 425.007C3253.53 425.431 3259.45 425.995 3263.83 426.841C3267.07 427.405 3268.76 429.098 3268.76 432.201V457.166C3268.76 459.141 3268.48 460.269 3267.92 460.833C3267.49 461.398 3266.51 462.103 3265.24 462.949Z" fill="url(#paint12_linear_213_86)"/>
<path d="M3317.28 510.059C3321.93 508.085 3325.03 509.072 3326.73 512.88C3331.1 521.625 3336.74 528.818 3343.79 534.46C3350.7 540.102 3358.04 544.334 3365.79 547.155C3373.41 549.976 3381.31 551.527 3389.2 551.527C3397.1 551.527 3404.43 550.117 3410.92 547.155C3417.55 544.334 3422.77 540.102 3426.86 534.601C3430.95 529.101 3433.49 522.189 3434.19 513.726C3434.47 508.226 3433.77 503.43 3432.08 499.34C3430.38 495.249 3426.86 491.018 3421.22 486.645C3415.58 482.273 3407.54 477.618 3397.24 472.682C3386.81 467.745 3372.84 461.821 3355.36 455.051C3339 448.422 3326.59 440.1 3318.41 429.944C3310.23 419.789 3306.14 405.684 3306.14 387.63C3306.14 371.833 3309.66 358.292 3316.57 347.15C3323.48 336.007 3332.37 327.121 3343.23 320.492C3354.09 313.721 3366.22 309.208 3379.75 306.81C3393.29 304.412 3406.69 303.848 3419.95 305.117C3433.2 306.528 3445.62 309.772 3457.04 315.132C3468.46 320.492 3477.63 327.544 3484.54 336.289L3487.78 341.226C3488.63 342.072 3488.77 343.482 3488.21 345.316L3469.73 364.639C3468.6 366.332 3467.05 367.601 3465.08 368.589C3462.96 369.576 3461.27 369.294 3460 368.025C3455.63 361.959 3448.44 356.882 3438.42 352.791C3428.41 348.701 3418.4 346.726 3408.24 346.867C3398.09 347.008 3389.2 349.829 3381.31 355.33C3373.55 360.831 3369.6 369.999 3369.6 382.834C3369.6 389.746 3372.28 395.67 3377.64 400.889C3383 406.107 3391.32 411.185 3402.88 416.122C3411.91 420.494 3422.63 424.726 3435.04 428.675C3447.45 432.624 3459.44 438.125 3470.72 445.318C3482 452.371 3491.31 461.68 3498.36 473.246C3505.41 484.671 3508.52 499.763 3507.39 518.381C3506.26 534.46 3501.04 548.424 3491.59 559.99C3482.14 571.556 3470.44 580.724 3456.48 587.353C3442.51 593.982 3427.14 597.791 3410.5 598.778C3393.86 599.906 3377.5 598.073 3361.7 593.277C3345.77 588.481 3331.38 580.583 3318.41 569.722C3305.43 558.72 3295.56 544.475 3289.07 526.562C3287.38 522.189 3288.51 519.509 3292.31 518.381L3317.28 510.059Z" fill="url(#paint13_linear_213_86)"/>
<path d="M3753.21 345.88C3747.14 346.726 3737.97 347.291 3725.7 347.714C3713.43 348.137 3699.61 348.56 3684.24 349.124C3681.84 349.124 3679.59 349.124 3677.47 349.124C3675.36 349.124 3673.1 349.406 3670.7 349.97C3671.83 367.46 3672.54 385.232 3672.82 403.145C3673.1 421.058 3673.1 439.536 3672.82 458.295C3672.54 479.875 3672.11 500.891 3671.41 521.061C3670.7 541.372 3669.57 561.4 3667.88 581.429C3667.6 588.34 3664.21 591.726 3657.59 591.726H3613.58C3610.62 591.726 3608.08 590.738 3606.25 588.905C3604.28 586.93 3603.29 584.532 3603.01 581.57C3602.44 564.927 3602.02 549.411 3601.6 535.166C3601.17 520.92 3601.03 507.097 3601.03 493.557C3601.03 480.016 3601.17 466.335 3601.46 452.512C3601.74 438.689 3602.16 423.738 3602.72 407.518C3603.01 399.337 3603.15 390.31 3603.29 380.578C3603.43 370.846 3603.71 360.831 3604.28 350.394H3586.65C3571.27 350.394 3557.45 350.112 3545.04 349.406C3532.63 348.701 3523.18 348.137 3516.98 347.573C3515 347.573 3514.16 345.88 3514.16 342.636L3513.73 316.824C3513.73 315.132 3514.16 314.003 3515.14 313.298C3516.13 312.593 3517.12 312.17 3518.25 311.888C3524.31 311.041 3533.2 310.195 3545.18 309.49C3557.03 308.644 3570.57 308.079 3585.66 307.656C3600.75 307.233 3616.55 306.951 3633.05 306.81C3649.55 306.669 3665.48 306.669 3680.86 306.81C3696.23 306.951 3710.19 307.233 3722.88 307.656C3735.58 308.079 3745.45 308.785 3752.64 309.913C3756.17 310.477 3758 312.311 3758 315.273V340.379C3758 342.354 3757.72 343.482 3757.01 344.046C3755.88 344.47 3754.76 345.175 3753.21 345.88Z" fill="url(#paint14_linear_213_86)"/>
<defs>
<linearGradient id="paint0_linear_213_86" x1="392.074" y1="778.242" x2="392.074" y2="676.819" gradientUnits="userSpaceOnUse">
<stop stop-color="#EE197D"/>
<stop offset="0.0692985" stop-color="#EF247B"/>
<stop offset="0.7125" stop-color="#F38A68"/>
<stop offset="1" stop-color="#F5B361"/>
</linearGradient>
<linearGradient id="paint1_linear_213_86" x1="83.153" y1="614.915" x2="227.661" y2="517.068" gradientUnits="userSpaceOnUse">
<stop offset="0.0753616" stop-color="#6B57FF"/>
<stop offset="0.1192" stop-color="#715AF5"/>
<stop offset="0.1947" stop-color="#8063D9"/>
<stop offset="0.2925" stop-color="#9971AC"/>
<stop offset="0.409" stop-color="#BC846E"/>
<stop offset="0.5399" stop-color="#E89D20"/>
<stop offset="0.5722" stop-color="#F3A30B"/>
<stop offset="0.7385" stop-color="#F9A600"/>
</linearGradient>
<linearGradient id="paint2_linear_213_86" x1="317.762" y1="51.0679" x2="670.048" y2="397.042" gradientUnits="userSpaceOnUse">
<stop stop-color="#3DEA62"/>
<stop offset="0.8132" stop-color="#21D789"/>
<stop offset="0.8316" stop-color="#1FCF93"/>
<stop offset="0.863" stop-color="#19B9AF"/>
<stop offset="0.9035" stop-color="#0F95DB"/>
<stop offset="0.9284" stop-color="#087CFA"/>
</linearGradient>
<linearGradient id="paint3_linear_213_86" x1="36.3379" y1="534.692" x2="779.263" y2="534.692" gradientUnits="userSpaceOnUse">
<stop offset="0.4145" stop-color="#FFF84A"/>
<stop offset="0.5205" stop-color="#FEEE41"/>
<stop offset="0.7025" stop-color="#FCD228"/>
<stop offset="0.9362" stop-color="#F9A600"/>
</linearGradient>
<linearGradient id="paint4_linear_213_86" x1="126.024" y1="684.92" x2="801.468" y2="407.682" gradientUnits="userSpaceOnUse">
<stop stop-color="#5E5CFE"/>
<stop offset="0.3171" stop-color="#087CFA"/>
<stop offset="0.7238" stop-color="#087CFA"/>
<stop offset="0.772" stop-color="#0886F9"/>
<stop offset="0.8544" stop-color="#07A2F6"/>
<stop offset="0.9362" stop-color="#07C3F2"/>
</linearGradient>
<linearGradient id="paint5_linear_213_86" x1="53.1631" y1="443.372" x2="472.251" y2="63.2388" gradientUnits="userSpaceOnUse">
<stop stop-color="#FCF84A"/>
<stop offset="0.4317" stop-color="#3DEA62"/>
<stop offset="0.7591" stop-color="#3DEA62"/>
<stop offset="1" stop-color="#21D789"/>
</linearGradient>
<linearGradient id="paint6_linear_213_86" x1="917.972" y1="444.022" x2="1136.16" y2="444.022" gradientUnits="userSpaceOnUse">
<stop stop-color="#EE197D"/>
<stop offset="0.0692985" stop-color="#EF247B"/>
<stop offset="0.7125" stop-color="#F38A68"/>
<stop offset="1" stop-color="#F5B361"/>
</linearGradient>
<linearGradient id="paint7_linear_213_86" x1="1145.28" y1="445.362" x2="1419.82" y2="445.362" gradientUnits="userSpaceOnUse">
<stop stop-color="#FCF84A"/>
<stop offset="0.4317" stop-color="#3DEA62"/>
<stop offset="0.7591" stop-color="#3DEA62"/>
<stop offset="1" stop-color="#21D789"/>
</linearGradient>
<linearGradient id="paint8_linear_213_86" x1="1430.49" y1="451.812" x2="1649.77" y2="451.812" gradientUnits="userSpaceOnUse">
<stop stop-color="#3DEA62"/>
<stop offset="0.4006" stop-color="#21D789"/>
<stop offset="0.4845" stop-color="#1FCF93"/>
<stop offset="0.6286" stop-color="#19B9AF"/>
<stop offset="0.8142" stop-color="#0F95DB"/>
<stop offset="0.9284" stop-color="#087CFA"/>
</linearGradient>
<linearGradient id="paint9_linear_213_86" x1="1655.29" y1="449.203" x2="1899.47" y2="449.203" gradientUnits="userSpaceOnUse">
<stop offset="0.1281" stop-color="#07C3F2"/>
<stop offset="1" stop-color="#087CFA"/>
</linearGradient>
<linearGradient id="paint10_linear_213_86" x1="2503.52" y1="466.416" x2="2799.41" y2="466.416" gradientUnits="userSpaceOnUse">
<stop stop-color="#087CFA"/>
<stop offset="1" stop-color="#5E5CFE"/>
</linearGradient>
<linearGradient id="paint11_linear_213_86" x1="2806.63" y1="455.515" x2="3043.89" y2="455.515" gradientUnits="userSpaceOnUse">
<stop stop-color="#6B57FF"/>
<stop offset="1" stop-color="#087CFA"/>
</linearGradient>
<linearGradient id="paint12_linear_213_86" x1="3050.7" y1="445.588" x2="3277.92" y2="445.588" gradientUnits="userSpaceOnUse">
<stop stop-color="#087CFA"/>
<stop offset="0.5536" stop-color="#21D789"/>
<stop offset="0.6867" stop-color="#28DC7F"/>
<stop offset="0.9146" stop-color="#3CE963"/>
<stop offset="0.9246" stop-color="#3DEA62"/>
</linearGradient>
<linearGradient id="paint13_linear_213_86" x1="3288.66" y1="451.812" x2="3507.95" y2="451.812" gradientUnits="userSpaceOnUse">
<stop stop-color="#21D789"/>
<stop offset="0.5266" stop-color="#3DEA62"/>
<stop offset="0.8918" stop-color="#FCF84A"/>
<stop offset="1" stop-color="#FCF84A"/>
</linearGradient>
<linearGradient id="paint14_linear_213_86" x1="3513.47" y1="449.203" x2="3757.65" y2="449.203" gradientUnits="userSpaceOnUse">
<stop stop-color="#FFF84A"/>
<stop offset="0.2614" stop-color="#FDDF34"/>
<stop offset="0.749" stop-color="#FAB60E"/>
<stop offset="1" stop-color="#F9A600"/>
</linearGradient>
</defs>
</svg>
